#!OML:ASF Y:\EmotionMaleHayes\Project 1\Capture day 1\Session 1\Male1.ASF
:FULLY-SPECIFIED
:DEGREES
116
root 21.2036 17.0627 -2.44115 -57.4744 104.57 -58.7424
lowerback 12.9287 -3.46109 -18.6108
upperback 0.962499 -7.17434 -2.10808
thorax -4.21456 -3.11916 9.13548
lowerneck -28.3222 2.73442 2.47861
upperneck 17.7275 2.52056 0.943244
head 10.3031 1.45785 0.362027
rclavicle -3.16565e-014 -1.78906e-014
rhumerus -88.9274 11.615 -96.6099
rradius 98.1439
rwrist -26.1585
rhand -30.7113 -27.7326
rfingers 7.12502
rthumb -4.00436 -57.6747
lclavicle -3.16565e-014 -1.78906e-014
lhumerus -28.119 -27.5768 93.482
lradius 107.186
lwrist 15.9766
lhand -39.876 -41.007
lfingers 7.12502
lthumb -12.8482 -11.4224
rfemur -37.6693 -10.2027 6.67632
rtibia 74.8238
rfoot -9.12824 -0.14208
rtoes 9.57662
lfemur 20.8046 -2.626 -36.0893
ltibia 18.4589
lfoot -3.14933 -1.54058
ltoes -12.1311
117
root 21.7026 17.2031 -2.43587 -56.6945 104.432 -58.2927
lowerback 12.5735 -3.64054 -18.7578
upperback 0.647714 -7.39978 -1.87168
thorax -4.25405 -3.21185 9.47471
lowerneck -28.2946 2.86992 2.82294
upperneck 17.9821 2.63832 0.651957
head 10.4021 1.49941 0.223642
rclavicle 3.12589e-014 -4.73108e-014
rhumerus -90.2679 11.3261 -96.4315
rradius 98.5541
rwrist -26.3343
rhand -30.7234 -28.9123
rfingers 7.12502
rthumb -4.016 -58.8542
lclavicle 3.12589e-014 -4.73108e-014
lhumerus -28.7732 -28.0732 93.9967
lradius 108.389
lwrist 17.0282
lhand -39.6912 -41.8554
lfingers 7.12502
lthumb -12.6701 -12.2597
rfemur -37.329 -9.77458 7.18521
rtibia 68.9388
rfoot -10.2487 -2.21691
rtoes 9.98268
lfemur 22.0835 -2.18365 -34.8935
ltibia 17.2951
lfoot 0.678056 -1.56496
ltoes -8.10717
118
root 22.2241 17.3231 -2.39222 -55.1689 103.795 -56.974
lowerback 11.8558 -3.74111 -18.9019
upperback 0.551652 -7.40207 -1.39936
thorax -3.87613 -3.25499 9.99751
lowerneck -28.4603 3.01543 3.18581
upperneck 18.2824 2.7839 0.243854
head 10.5543 1.53939 0.0470085
rclavicle 5.69518e-014 9.83984e-014
rhumerus -91.3455 11.021 -96.213
rradius 98.9092
rwrist -26.5407
rhand -30.7293 -29.5121
rfingers 7.12502
rthumb -4.02175 -59.4539
lclavicle 5.69518e-014 9.83984e-014
lhumerus -29.263 -28.7663 94.4584
lradius 109.426
lwrist 17.7575
lhand -39.7057 -42.615
lfingers 7.12502
lthumb -12.6841 -13.0201
rfemur -36.5197 -8.60521 8.4129
rtibia 62.5863
rfoot -11.8216 -4.13287
rtoes 10.3369
lfemur 23.4759 -1.90861 -32.8805
ltibia 16.1827
lfoot 4.08943 -0.8744
ltoes -1.89081
119
root 22.7126 17.4637 -2.41739 -56.0836 105.155 -58.4273
lowerback 11.3633 -4.01448 -20.1298
upperback 0.329166 -7.82996 -1.61436
thorax -3.59358 -3.44925 10.398
lowerneck -28.1439 3.2739 3.29194
upperneck 18.0297 3.11637 0.216734
head 10.4144 1.69461 0.0700218
rclavicle 2.23633e-014 2.50469e-014
rhumerus -92.1728 10.7774 -96.0022
rradius 99.0593
rwrist -26.9713
rhand -30.8614 -28.8556
rfingers 7.12502
rthumb -4.14928 -58.7949
lclavicle 2.23633e-014 2.50469e-014
lhumerus -29.6373 -29.4836 94.761
lradius 110.351
lwrist 18.3101
lhand -39.7415 -42.7808
lfingers 7.12502
lthumb -12.7186 -13.1882
rfemur -35.5994 -9.39577 6.75929
rtibia 56.2364
rfoot -12.6713 -4.40334
rtoes 9.81392
lfemur 24.146 -1.77093 -33.8414
ltibia 15.8917
lfoot 6.79645 -0.449774
ltoes -1.54842
120
root 23.2053 17.5794 -2.40619 -57.1948 105.263 -60.0199
lowerback 10.7139 -4.06122 -20.823
upperback 0.139424 -7.84332 -1.51969
thorax -3.33621 -3.46002 10.8073
lowerneck -28.4996 3.39632 3.70256
upperneck 18.4927 3.2165 -0.242417
head 10.6631 1.71046 -0.136436
rclavicle -5.98093e-014 -6.42074e-014
rhumerus -92.911 10.5645 -95.8402
rradius 99.2068
rwrist -27.4225
rhand -31.1374 -28.2355
rfingers 7.12502
rthumb -4.41578 -58.1695
lclavicle -5.98093e-014 -6.42074e-014
lhumerus -30.1909 -30.1719 94.9951
lradius 111.273
lwrist 18.7825
lhand -39.6663 -43.0074
lfingers 7.12502
lthumb -12.6461 -13.4103
rfemur -34.7573 -8.61362 6.54091
rtibia 49.6422
rfoot -13.4262 -5.04506
rtoes 8.80742
lfemur 24.7298 -1.49213 -33.4652
ltibia 15.8258
lfoot 8.50335 -0.0780586
ltoes -5.07734
121
root 23.6875 17.6796 -2.40096 -58.0484 104.867 -61.2961
lowerback 10.2021 -4.05082 -20.9342
upperback -0.0776277 -7.75121 -1.31908
thorax -3.28096 -3.41058 11.0413
lowerneck -28.7396 3.63193 3.59085
upperneck 18.8553 3.49655 0.0739192
head 10.8357 1.8727 0.0520786
rclavicle -3.45388e-014 4.45278e-014
rhumerus -93.5535 10.4265 -95.6205
rradius 99.5237
rwrist -27.6313
rhand -31.1957 -28.1971
rfingers 7.12502
rthumb -4.47216 -58.1299
lclavicle -3.45388e-014 4.45278e-014
lhumerus -30.9868 -30.8671 95.3455
lradius 112.124
lwrist 18.7163
lhand -39.6733 -43.4005
lfingers 7.12502
lthumb -12.6528 -13.8038
rfemur -33.6193 -7.4412 6.79321
rtibia 42.6697
rfoot -14.0129 -5.28894
rtoes 8.49042
lfemur 25.1669 -1.22232 -32.7035
ltibia 16.2969
lfoot 9.41953 0.744275
ltoes -7.87959
122
root 24.1839 17.7662 -2.41363 -57.0299 104.542 -60.5104
lowerback 9.65858 -4.20705 -20.572
upperback -0.133485 -7.7963 -1.09669
thorax -3.0346 -3.47109 11.0348
lowerneck -29.5799 4.05173 3.55704
upperneck 19.903 4.02347 0.193099
head 11.3801 2.12471 0.220367
rclavicle 8.01972e-015 1.17283e-014
rhumerus -94.0029 10.3536 -95.2912
rradius 99.9444
rwrist -27.7708
rhand -31.1135 -28.9079
rfingers 7.12502
rthumb -4.39275 -58.8423
lclavicle 8.01972e-015 1.17283e-014
lhumerus -31.6725 -31.6218 95.6692
lradius 112.742
lwrist 18.1767
lhand -39.8177 -43.8266
lfingers 7.12502
lthumb -12.792 -14.2385
rfemur -31.8651 -6.96213 7.14713
rtibia 35.4559
rfoot -14.3353 -4.82449
rtoes 8.55144
lfemur 25.7606 -1.23112 -31.8861
ltibia 17.1889
lfoot 9.46545 2.01006
ltoes -8.48956
123
root 24.7151 17.8368 -2.4586 -55.6943 105.254 -59.3072
lowerback 8.73527 -4.60612 -20.6001
upperback 0.0280627 -8.07545 -1.19941
thorax -2.24949 -3.70305 10.8111
lowerneck -30.3363 4.11576 3.82085
upperneck 20.4416 4.00669 0.0286462
head 11.7281 2.11354 0.133371
rclavicle -8.70925e-015 6.01324e-015
rhumerus -94.2612 10.2692 -94.9626
rradius 100.442
rwrist -28.0173
rhand -30.9689 -29.8691
rfingers 7.12502
rthumb -4.25315 -59.8064
lclavicle -8.70925e-015 6.01324e-015
lhumerus -32.2114 -32.419 95.8514
lradius 113.281
lwrist 17.8151
lhand -39.7565 -44.7126
lfingers 7.12502
lthumb -12.7331 -15.1208
rfemur -29.7557 -8.11277 6.40715
rtibia 28.6279
rfoot -14.3752 -3.28999
rtoes 7.76869
lfemur 26.5261 -1.35386 -32.1811
ltibia 18.3882
lfoot 8.90035 3.47015
ltoes -7.03758
124
root 25.1479 17.8826 -2.43572 -53.7016 102.626 -58.0754
lowerback 8.03371 -4.40568 -18.6712
upperback -0.251379 -7.53069 -0.355041
thorax -2.46344 -3.4503 10.6406
lowerneck -31.0971 4.44282 4.01278
upperneck 21.2546 4.39863 -0.173781
head 12.1956 2.27261 0.123268
rclavicle 6.6404e-014 3.85502e-014
rhumerus -94.5086 10.2402 -94.6211
rradius 100.98
rwrist -28.2486
rhand -30.6961 -29.9366
rfingers 7.12502
rthumb -3.98971 -59.879
lclavicle 6.6404e-014 3.85502e-014
lhumerus -32.9935 -33.0867 96.1754
lradius 113.871
lwrist 17.5975
lhand -39.5627 -45.7758
lfingers 7.12502
lthumb -12.5462 -16.1725
rfemur -30.0368 -4.52238 9.17916
rtibia 23.1684
rfoot -15.1486 -3.99122
rtoes 7.06837
lfemur 25.9664 -0.831829 -28.8043
ltibia 20.0348
lfoot 7.95533 5.64682
ltoes -6.88963
125
root 25.6353 17.9121 -2.45677 -52.1305 101.702 -56.8424
lowerback 7.35587 -4.4723 -17.6708
upperback -0.36949 -7.41098 0.0165695
thorax -2.31753 -3.42409 10.4325
lowerneck -30.2442 4.49982 4.14279
upperneck 20.4699 4.59862 -0.684952
head 11.7615 2.30257 -0.0778984
rclavicle 6.25054e-014 5.09386e-014
rhumerus -94.7597 10.3718 -94.2752
rradius 101.347
rwrist -28.3844
rhand -30.3565 -29.0878
rfingers 7.12502
rthumb -3.66175 -59.0361
lclavicle 6.25054e-014 5.09386e-014
lhumerus -34.0734 -33.5307 96.7224
lradius 114.394
lwrist 17.1874
lhand -39.5746 -46.3235
lfingers 7.12502
lthumb -12.5577 -16.7209
rfemur -29.0449 -3.18495 10.013
rtibia 17.7213
rfoot -15.5636 -3.40441
rtoes 5.65573
lfemur 26.0804 -0.38319 -27.3013
ltibia 21.7986
lfoot 7.33631 6.86428
ltoes -9.00099
126
root 26.189 17.9192 -2.53902 -53.1378 103.471 -57.7059
lowerback 6.48525 -4.93634 -18.336
upperback -0.150537 -7.86172 -0.487842
thorax -1.43588 -3.72563 10.117
lowerneck -31.0169 4.50277 4.33367
upperneck 21.0488 4.55889 -0.953902
head 12.134 2.25707 -0.198982
rclavicle -1.09829e-014 -2.32578e-014
rhumerus -94.8454 10.5866 -94.0036
rradius 101.661
rwrist -28.2394
rhand -29.7507 -28.4299
rfingers 7.12502
rthumb -3.07667 -58.3875
lclavicle -1.09829e-014 -2.32578e-014
lhumerus -35.1697 -33.8581 97.1964
lradius 114.793
lwrist 16.5978
lhand -39.8274 -46.5018
lfingers 7.12502
lthumb -12.8014 -16.9143
rfemur -26.7569 -6.14861 8.22061
rtibia 12.5681
rfoot -15.1575 -0.321325
rtoes 4.1961
lfemur 27.0139 -0.468956 -29.1297
ltibia 23.5747
lfoot 7.25573 7.55488
ltoes -10.1653
127
root 26.6759 17.9073 -2.56941 -51.8656 103.315 -56.5179
lowerback 5.99253 -5.08592 -17.7403
upperback -0.102857 -7.9151 -0.390833
thorax -1.15259 -3.79159 9.83637
lowerneck -30.7343 4.72551 4.47806
upperneck 20.8741 4.91246 -1.29284
head 12.0397 2.37913 -0.289689
rclavicle 6.1002e-014 1.67973e-014
rhumerus -94.7473 10.7126 -93.7399
rradius 102.065
rwrist -28.0062
rhand -29.2099 -28.0779
rfingers 7.12502
rthumb -2.55441 -58.0423
lclavicle 6.1002e-014 1.67973e-014
lhumerus -36.2045 -34.1905 97.64
lradius 115.06
lwrist 16.0036
lhand -40.1165 -46.5026
lfingers 7.12502
lthumb -13.0801 -16.9327
rfemur -25.9278 -6.79373 8.69674
rtibia 8.88708
rfoot -14.9273 1.15061
rtoes 3.14246
lfemur 27.1601 -0.552746 -28.5663
ltibia 26.0105
lfoot 7.0933 8.67429
ltoes -7.29276
128
root 27.1579 17.8757 -2.59735 -51.2512 103.079 -55.9367
lowerback 5.69792 -5.09935 -17.1314
upperback -0.144756 -7.84459 -0.31858
thorax -1.1216 -3.7658 9.5551
lowerneck -30.987 4.71998 4.38259
upperneck 21.0689 4.9498 -1.33516
head 12.16 2.37914 -0.277593
rclavicle 8.7838e-015 -3.37934e-014
rhumerus -94.6682 10.6752 -93.5651
rradius 102.381
rwrist -28.0293
rhand -29.2599 -27.7186
rfingers 7.12502
rthumb -2.60271 -57.6825
lclavicle 8.7838e-015 -3.37934e-014
lhumerus -37.1719 -34.466 98.0514
lradius 115.087
lwrist 16.3197
lhand -39.3448 -47.3241
lfingers 7.12502
lthumb -12.3361 -17.7081
rfemur -25.8814 -8.96473 9.76058
rtibia 7.09225
rfoot -14.3124 4.02917
rtoes 5.33475
lfemur 27.2402 -0.639684 -28.1159
ltibia 28.7997
lfoot 6.59649 9.56344
ltoes -1.15683
129
root 27.6193 17.8223 -2.61184 -49.9815 102.223 -54.6303
lowerback 5.91853 -4.94519 -15.963
upperback -0.343253 -7.6381 -0.127133
thorax -1.64082 -3.62548 9.17414
lowerneck -30.7626 4.58766 4.18276
upperneck 20.9928 4.82752 -1.19529
head 12.0773 2.33052 -0.220418
rclavicle 3.30355e-014 -1.15295e-014
rhumerus -94.661 10.6021 -93.5402
rradius 102.657
rwrist -27.8383
rhand -29.2416 -27.6118
rfingers 7.12502
rthumb -2.58506 -57.5759
lclavicle 3.30355e-014 -1.15295e-014
lhumerus -38.4016 -34.7916 98.6023
lradius 115.074
lwrist 16.5052
lhand -39.0291 -47.6098
lfingers 7.12502
lthumb -12.0317 -17.9757
rfemur -26.4015 -10.4887 11.663
rtibia 6.73921
rfoot -14.4454 6.33033
rtoes 6.43244
lfemur 27.1686 -0.676685 -26.9609
ltibia 31.4868
lfoot 6.6254 9.53406
ltoes -0.30151
130
root 28.0707 17.7493 -2.61648 -47.9821 101.215 -52.454
lowerback 6.31579 -4.75699 -14.7354
upperback -0.450635 -7.39069 0.123377
thorax -2.16179 -3.47584 8.8296
lowerneck -30.7067 4.53184 4.21286
upperneck 20.8158 4.78634 -1.37619
head 12.0033 2.28923 -0.304471
rclavicle -7.98866e-015 9.93923e-015
rhumerus -94.3651 10.6235 -93.546
rradius 102.873
rwrist -27.3661
rhand -28.9882 -27.2304
rfingers 7.12502
rthumb -2.34028 -57.1973
lclavicle -7.98866e-015 9.93923e-015
lhumerus -39.8765 -34.9642 99.3946
lradius 114.972
lwrist 15.4821
lhand -39.7143 -46.2211
lfingers 7.12502
lthumb -12.6924 -16.6268
rfemur -26.7891 -10.3824 13.3671
rtibia 7.12065
rfoot -15.4216 5.99464
rtoes 3.53694
lfemur 27.0346 -0.729276 -25.5031
ltibia 34.2188
lfoot 7.2103 8.71671
ltoes -5.09089
